<svg xmlns="http://www.w3.org/2000/svg" width="30" height="34" viewBox="0 0 30 34"><path fill="#fff" d="M14.91 4.61a14.33 14.33 0 1 0 .01 28.66 14.33 14.33 0 0 0 0-28.66c-7.92 0 0 0 0 0zm0 25.84a11.51 11.51 0 1 1 .01-23.03 11.51 11.51 0 0 1 0 23.03c-6.36 0 0 0 0 0zM29.23 6.66a6.14 6.14 0 0 0-11-3.75c4.22.87 7.85 3.36 10.2 6.79.51-.89.8-1.93.8-3.04zm-.8 3.04c2.35 3.44 0 0 0 0zM11.58 2.91A6.14 6.14 0 0 0 1.4 9.7a16.38 16.38 0 0 1 10.2-6.79c4.21-.87 0 0 0 0zm1.29 18.07h2.04l-.04-2.04h.21l-.03-7.96h-2.18zm8.18-2.04v2.04h-5.96v-2.04z"/></svg>