<svg xmlns="http://www.w3.org/2000/svg" width="21" height="18" viewBox="0 0 21 18"><path fill="#fff" d="M11.02.97H5.98C3.7.97 1.56 2.85 1.56 4.79c0 1.97 1.55 3.56 3.87 3.56l.47-.01c-.15.28-.26.59-.26.92 0 .55.3.99.69 1.35l-.88.01C2.64 10.62 0 12.33 0 14.13c0 1.77 2.84 2.91 5.66 2.91 3.21 0 5.29-1.76 5.29-3.53 0-1.43-.74-2.28-2.08-3.2-.46-.31-1.34-1.07-1.34-1.52 0-.53.16-.79.98-1.41a3.25 3.25 0 0 0 1.43-2.56c0-1.24-.57-2.44-1.64-2.84l2.67.03zM9.28 13.26c-.21.13-.22.43-.22.6 0 1.44-1.06 2.15-3.38 2.15-1.95 0-3.66-.95-3.66-2.38 0-1.4 2.02-2.57 3.97-2.55.45 0 .87.07 1.26.2 1.05.71 1.81 1.11 2.03 1.92.21.81 0 .06 0 .06zM6.16 7.85c-1.31-.03-2.55-1.41-2.77-3.07-.23-1.66.65-2.94 1.95-2.9 1.31.04 2.55 1.38 2.78 3.04.22 1.66-.65 2.97-1.96 2.93-1.31-.03 0 0 0 0zm13.87-2.92L20 5.97 15.96 6l.03 3.99-.99.03.03-4.05-3.98.03-.06-.98L15 4.99V.97h.99v3.96z"/></svg>