<svg xmlns="http://www.w3.org/2000/svg" width="34" height="30" viewBox="0 0 34 30"><path fill="#fff" d="M14.43.63c7.54 0 13.65 4.94 13.65 11.04 0 6.1-6.11 11.05-13.65 11.05-.73 0-1.44-.05-2.13-.13-2.93 2.92-6.32 3.44-9.7 3.52v-.72c1.83-.89 3.3-2.51 3.3-4.37 0-.26-.02-.51-.06-.76C2.75 18.23.78 15.14.78 11.67.78 5.57 6.88.63 14.43.63c7.54 0 0 0 0 0zM29.1 25.39c0-.22.02-.44.05-.66 2.68-1.73 4.39-4.38 4.39-7.36a8.55 8.55 0 0 0-3.34-6.58 11.32 11.32 0 0 1-1.28 6.19 13.39 13.39 0 0 1-3.48 4.18 17.4 17.4 0 0 1-10.94 3.72 13.74 13.74 0 0 0 7.21 1.96c.63 0 1.24-.04 1.84-.11 2.55 2.5 5.24 2.95 8.17 3.02v-.62c-1.59-.76-2.62-2.15-2.62-3.74 0 0 0 .22 0 0z"/></svg>