<svg xmlns="http://www.w3.org/2000/svg" width="45" height="45" viewBox="0 0 45 45"><path fill="#ffe600" d="M5.85.99l-2.9 24.55 3.25.38L8.78 4h27.37l2.58 21.92 3.25-.38L39.08.99zM12 9.07l21-.08-.03-3.04H12zm-.01 5.91l21.01.04.04-3.03H12.02zm0 6.06L33 21.01v-3.03H12.02zm0 4.97l21.05.03-.03-3.06H11.96zm30.87 3.03l-41.04-.06c-.75 0-1.02.83-.78 1.55l4.48 13.13a2.05 2.05 0 0 0 1.8 1.31H37.6c.76 0 1.57-.59 1.81-1.31l4.54-13.26a1.05 1.05 0 0 0-1-1.42c-.76 0-.1.06-.1.06zM28 33.97H16.96l.03-3h10.98z"/></svg>