<svg xmlns="http://www.w3.org/2000/svg" width="18" height="16" viewBox="0 0 18 16"><path fill="#fff" d="M17.94 2.22c-.65.3-1.36.5-2.1.58a3.66 3.66 0 0 0 1.6-2.03c-.7.42-1.49.73-2.32.89a3.68 3.68 0 0 0-6.34 2.51c0 .29.03.57.09.84A10.38 10.38 0 0 1 1.3 1.18a3.65 3.65 0 0 0 1.13 4.89A3.7 3.7 0 0 1 .8 5.62v.04a3.67 3.67 0 0 0 2.94 3.6 3.84 3.84 0 0 1-1.66.06 3.67 3.67 0 0 0 3.43 2.55 7.38 7.38 0 0 1-5.43 1.52 10.47 10.47 0 0 0 5.62 1.64c6.75 0 10.43-5.58 10.43-10.43v-.48a7.28 7.28 0 0 0 1.82-1.9"/></svg>