<svg xmlns="http://www.w3.org/2000/svg" width="39" height="32" viewBox="0 0 39 32"><path fill="#fff" d="M11.61 17.94a7.83 7.83 0 0 1 7.9-7.76 7.83 7.83 0 0 1 7.91 7.76 7.83 7.83 0 0 1-7.91 7.76 7.83 7.83 0 0 1-7.9-7.76s0 4.29 0 0zM36.54 4.81a2.42 2.42 0 0 1 2.44 2.38v21.5c0 1.31-1.1 2.39-2.44 2.39H2.48a2.42 2.42 0 0 1-2.43-2.39V7.19c0-1.31 1.1-2.38 2.43-2.38H11c.61-2.39 1.22-4.78 3.65-4.78h9.73c2.43 0 3.04 2.39 3.65 4.78zM19.51 28.54a10.7 10.7 0 0 0 10.8-10.6 10.7 10.7 0 0 0-10.8-10.6 10.7 10.7 0 0 0-10.79 10.6 10.7 10.7 0 0 0 10.79 10.6s-5.96 0 0 0zM36.98 9.99l-4.99-.03v2.07l4.99-.03z"/></svg>