<svg xmlns="http://www.w3.org/2000/svg" width="17" height="18" viewBox="0 0 17 18"><path fill="#fff" d="M8.5 17.73A8.4 8.4 0 0 1 .12 9.35a8.4 8.4 0 0 1 16.76 0 8.4 8.4 0 0 1-8.38 8.38c-4.62 0 0 0 0 0zm7.07-7.23c-.24-.08-2.21-.67-4.46-.31a30.5 30.5 0 0 1 1.4 5.11 7.19 7.19 0 0 0 3.06-4.8c.32-2 0 0 0 0zm-4.27 5.45c-.1-.63-.53-2.82-1.53-5.43l-.05.02c-4.04 1.41-5.49 4.21-5.61 4.47a7.1 7.1 0 0 0 7.19.94c.86-.37 0 0 0 0zm-8.12-1.8a11.38 11.38 0 0 1 6.1-4.81c-.18-.41-.37-.82-.58-1.22a26.3 26.3 0 0 1-7.36 1.02v.22c0 1.84.7 3.52 1.84 4.79 1.15 1.27 0 0 0 0zm4.93-7.13a45.2 45.2 0 0 0-2.65-4.14c-2 .94-3.5 2.79-3.97 5.01.32.01 3.27.02 6.62-.87zm-6.62.87c-.47 2.23 0 0 0 0zM6.82 2.4c.2.26 1.5 2.04 2.67 4.19 2.55-.95 3.63-2.4 3.76-2.59a7.13 7.13 0 0 0-6.43-1.6c-.54.13 0 0 0 0zm3.22 5.26c.17.34.33.68.48 1.03l.15.37c2.39-.3 4.75.18 4.99.23a7.1 7.1 0 0 0-1.62-4.46 9.44 9.44 0 0 1-4 2.83z"/></svg>