<svg xmlns="http://www.w3.org/2000/svg" width="44" height="46" viewBox="0 0 44 46"><path fill="#ffe600" d="M40.14 26.87l-.01-.02.01.02zm3.11-11.71L38.92 7.5a8.2 8.2 0 0 1-4.22 1.16A8.5 8.5 0 0 1 26.32.05h-8.66a8.63 8.63 0 0 1-1.12 4.32A8.32 8.32 0 0 1 5.05 7.48L.72 15.14a8.4 8.4 0 0 1 3.09 3.14 8.68 8.68 0 0 1-3.08 11.7l4.33 7.66a8.18 8.18 0 0 1 4.19-1.15 8.49 8.49 0 0 1 8.38 8.57h8.67a8.48 8.48 0 0 1 1.12-4.28 8.31 8.31 0 0 1 11.46-3.12L43.22 30a8.42 8.42 0 0 1-3.08-3.13l-.01-.02a8.68 8.68 0 0 1 3.12-11.69zM21.98 31.67a9.02 9.02 0 0 1-8.92-9.12c0-5.03 4-9.11 8.92-9.11a9.02 9.02 0 0 1 8.93 9.11c0 5.04-4 9.12-8.93 9.12z"/></svg>