<svg xmlns="http://www.w3.org/2000/svg" width="33" height="33" viewBox="0 0 33 33"><path fill="#fff" d="M16.87.47a16.1 16.1 0 1 0 0 32.19 16.1 16.1 0 0 0 0-32.19c-8.89 0 0 0 0 0zm-6.03 16.09a6.03 6.03 0 1 1 12.06 0 6.03 6.03 0 0 1-12.06 0c0-3.33 0 0 0 0zm19.05 5.4l-5.58-2.31a8.1 8.1 0 0 0 0-6.17l3.83-1.59 1.74-.72a14.05 14.05 0 0 1 .01 10.79c-.69 1.66 0 0 0 0zM19.95 9.13a7.9 7.9 0 0 0-3.08-.61 7.9 7.9 0 0 0-3.08.61l-1.08-2.62-1.23-2.96a14 14 0 0 1 10.78 0zm-16.1 2.04l2.97 1.23 2.61 1.08a8.1 8.1 0 0 0 0 6.17l-5.57 2.31a14.11 14.11 0 0 1 0-10.79c.68-1.66 0 0 0 0zm8.35 16.67L13.79 24c.95.4 1.99.61 3.08.61a7.9 7.9 0 0 0 3.08-.61l2.31 5.58a14 14 0 0 1-10.78 0z"/></svg>